<?xml version="1.0" encoding="UTF-8"?><svg id="Layer_1" xmlns="http://www.w3.org/2000/svg" xmlns:xlink="http://www.w3.org/1999/xlink" viewBox="0 0 504 489.76"><defs><style>.cls-1{fill:none;}.cls-2{fill:#231f20;}.cls-3{clip-path:url(#clippath);}</style><clipPath id="clippath"><rect class="cls-1" x="0" width="504" height="489.76"/></clipPath></defs><g class="cls-3"><path class="cls-2" d="M126.6,280.03c-1.6-.31-3.2-.63-4.79-.97-10.26-1.8-20.44-4.27-30.31-6.71,9.09-2.05,18.19-4.1,27.56-5.78,2.51-.46,5.02-.92,7.54-1.34v-25.11c-5.08-1.47-10.31-2.75-15.58-4.25-9.52-2.74-18.96-6.14-26.51-12.39-5.51-4.67-9.58-10.88-13.93-17.45,6.98,2.8,14,5.26,21.08,7.06,11.42,2.56,23.31,2.56,34.93,4.09v-23.04c-24.96-5.41-52.99-6.09-74.81-18.97-16.34-9.92-29.43-26.26-38.9-43.9-4.72-8.99-8.81-17.9-12.9-26.82.37,19.69,1.02,39.75,6.31,57.94,5.33,17.86,15.22,34.53,27.63,48.43,10.41,11.98,22.6,22.13,36.06,29.36,9.89,5.15,20.28,8.66,30.66,12.17-5.74.38-11.14.47-16.88.86-7.62.18-15.59.66-23.07-.5-7.48-1.16-14.49-3.62-21.5-6.09,4,6.87,7.64,14.05,12.26,21,4.94,6.98,10.54,13.69,16.95,18.79,16.22,12.18,37.55,14.62,58.18,18.2v-24.58Z"/><path class="cls-2" d="M276.22,181.93h-18.22l18.22,70.77v-70.77ZM258,351.27h18.22l-18.22-70.77v70.77ZM221.02,202.48v46.48c0,8.41-2.8,14.95-11.68,17.29,9.34.47,13.31,7.47,13.31,14.95v43.91c0,18.69-7.01,26.16-26.39,26.16h-61.43v-169.34h66.1c13.31,0,20.09,8.17,20.09,20.55M189.02,318.1v-31.53c0-3.74-2.1-4.9-5.14-4.9h-15.42v39.94h17.05c2.8,0,3.5-.94,3.5-3.5M185.52,211.59h-17.05v44.38h15.88c2.34,0,4.21-1.4,4.21-4.44v-36.67c0-2.1-.7-3.27-3.04-3.27M313.62,351.27h63.3l5.84-31.53h-35.5v-36.91h28.03v-29.2h-28.03v-40.17h36.9l-5.84-31.53h-64.7v169.34ZM234.79,368.29h-3.2c-.19,0-.34.15-.34.34v8.83c0,1.31.06,2.73.19,4.21,0,.07,0,.13.02.2-.39-1.35-.8-2.65-1.23-3.9l-3.17-9.44c-.05-.14-.18-.23-.32-.23h-2.97c-.19,0-.34.15-.34.34v23.66c0,.19.15.33.34.33h3.14c.09,0,.18-.04.24-.1.06-.07.1-.15.1-.24l-.17-10.31c0-.3,0-.57,0-.8,0-.24-.01-.44-.02-.61l-.12-2.13c.02.08.05.17.07.25.29,1.05.61,2.08.93,3.07l3.57,10.65c.05.14.17.23.32.23h2.99c.19,0,.34-.15.34-.33v-23.66c0-.18-.15-.34-.34-.34M270.97,368.29h-3.05c-.17,0-.31.12-.33.29l-1.6,10.84c-.14,1.09-.28,2.19-.41,3.32,0,.08-.02.15-.03.23-.01-.11-.03-.23-.04-.34-.16-1.25-.36-2.63-.59-4.1l-1.59-9.95c-.03-.16-.17-.28-.33-.28h-2.45c-.16,0-.3.12-.33.28l-1.7,10.24c-.16.93-.31,1.98-.46,3.13-.04.31-.08.63-.11.96-.06-.53-.12-1.1-.21-1.71l-1.87-12.61c-.02-.16-.17-.29-.33-.29h-3.08c-.1,0-.19.04-.26.12-.06.08-.09.18-.07.27l4.09,23.66c.03.16.17.28.33.28h2.56c.17,0,.31-.12.33-.28l1.72-10.18c.02-.08.06-.28.1-.6l.48-3.4.3,2.18c.08.55.14.97.18,1.27.04.32.07.5.08.51l1.67,10.22c.03.16.17.28.33.28h2.48c.16,0,.3-.12.33-.28l4.18-23.66c.02-.1,0-.2-.07-.27-.06-.08-.16-.12-.26-.12M318.39,368.29h-8.48c-.19,0-.34.15-.34.34v23.66c0,.19.15.33.34.33h8.48c.19,0,.34-.15.34-.33v-2.7c0-.18-.15-.33-.34-.33h-4.95v-7.41h4.35c.19,0,.34-.15.34-.34v-2.7c0-.19-.15-.34-.34-.34h-4.35v-6.82h4.95c.19,0,.34-.15.34-.34v-2.7c0-.18-.15-.34-.34-.34M249.11,368.29h-8.48c-.19,0-.34.15-.34.34v23.66c0,.19.15.33.34.33h8.48c.18,0,.34-.15.34-.33v-2.7c0-.18-.15-.33-.34-.33h-4.95v-7.41h4.35c.19,0,.34-.15.34-.34v-2.7c0-.19-.15-.34-.34-.34h-4.35v-6.82h4.95c.18,0,.34-.15.34-.34v-2.7c0-.18-.15-.34-.34-.34M292.2,368.29h-8.47c-.19,0-.34.15-.34.34v23.66c0,.19.15.33.34.33h8.47c.19,0,.34-.15.34-.33v-2.7c0-.18-.15-.33-.34-.33h-4.95v-7.41h4.35c.19,0,.34-.15.34-.34v-2.7c0-.19-.15-.34-.34-.34h-4.35v-6.82h4.95c.19,0,.34-.15.34-.34v-2.7c0-.18-.15-.34-.34-.34M368.74,368.29h-3.19c-.19,0-.34.15-.34.34v23.66c0,.19.15.33.34.33h3.19c.18,0,.33-.15.33-.33v-23.66c0-.18-.15-.34-.33-.34M378.84,373.7c.33-.72.74-1.25,1.23-1.58.48-.33,1.07-.5,1.75-.5.5,0,1.14.19,1.91.56.1.05.23.04.32-.02.1-.06.16-.17.16-.29v-2.87c0-.12-.07-.24-.17-.3-.91-.49-1.85-.74-2.8-.74-2.53,0-4.44,1.1-5.66,3.26-1.19,2.1-1.8,5.34-1.8,9.61,0,8.01,2.53,12.07,7.52,12.07,1,0,1.93-.23,2.74-.68.11-.06.17-.17.17-.29v-2.93c0-.11-.06-.22-.15-.28-.1-.06-.22-.07-.32-.02-.69.3-1.28.46-1.75.46-2.76,0-4.16-2.84-4.16-8.43,0-1.6.09-3.01.25-4.18.16-1.15.42-2.11.76-2.86M346.17,368.29h-10.38c-.18,0-.33.15-.33.34v2.79c0,.19.15.33.33.33h3.34v20.54c0,.19.15.33.34.33h3.13c.19,0,.34-.15.34-.33v-20.54h3.23c.19,0,.34-.15.34-.33v-2.79c0-.18-.15-.34-.34-.34M353.65,378.77c.95-.05,1.64-.29,2.03-.74.45-.51.68-1.41.68-2.67,0-.71-.05-1.32-.15-1.82-.1-.47-.25-.86-.45-1.15-.19-.28-.44-.47-.75-.6-.32-.14-.71-.21-1.16-.21h-.2v7.18ZM361.2,392.17c.04.1.03.22-.04.31-.06.09-.17.14-.28.14h-3.23c-.14,0-.27-.09-.32-.22l-3.69-9.85v9.73c0,.19-.15.33-.34.33h-3.19c-.19,0-.34-.15-.34-.33v-23.66c0-.18.15-.34.34-.34h4.2c1.82,0,3.2.45,4.11,1.34,1.14,1.14,1.71,2.87,1.71,5.16,0,1.75-.3,3.17-.89,4.25-.55.99-1.31,1.65-2.28,1.97l4.22,11.17ZM332.96,368.72c-.91-.49-1.85-.74-2.8-.74-2.53,0-4.43,1.1-5.66,3.26-1.19,2.1-1.8,5.34-1.8,9.61,0,8.01,2.53,12.07,7.52,12.07,1,0,1.93-.23,2.74-.68.11-.06.17-.17.17-.29v-2.93c0-.11-.06-.22-.15-.28-.1-.06-.22-.07-.32-.02-.69.3-1.28.46-1.75.46-2.76,0-4.15-2.84-4.15-8.43,0-1.6.08-3.01.25-4.18.16-1.15.42-2.11.76-2.86.32-.72.74-1.25,1.22-1.58.48-.33,1.07-.5,1.76-.5.5,0,1.14.19,1.91.56.1.05.23.04.32-.02.1-.06.16-.17.16-.29v-2.87c0-.12-.07-.24-.18-.3M305.73,389.26h-4.88v-20.63c0-.18-.15-.34-.33-.34h-3.19c-.19,0-.34.15-.34.34v23.66c0,.19.15.33.34.33h8.4c.19,0,.34-.15.34-.33v-2.7c0-.18-.15-.33-.34-.33M170.73,377.59c-.23,1.48-.5,3.04-.8,4.65l-.51,2.64h2.97l-.63-3.37c-.31-1.71-.59-3.5-.83-5.37-.07.49-.14.97-.21,1.46M172.56,368.56l5.07,23.66c.02.1,0,.2-.07.28-.06.08-.16.12-.26.12h-3.16c-.16,0-.3-.11-.33-.27l-.84-4.34h-4.13l-.85,4.34c-.03.16-.17.27-.33.27h-3.07c-.1,0-.2-.04-.26-.12-.07-.08-.09-.18-.07-.28l5.15-23.66c.03-.16.17-.26.33-.26h2.48c.16,0,.29.11.33.27M154.48,378.77c.95-.05,1.64-.29,2.03-.74.45-.51.68-1.41.68-2.67,0-.71-.05-1.32-.15-1.82-.1-.48-.25-.86-.45-1.15-.19-.28-.44-.47-.74-.6-.32-.14-.71-.2-1.16-.2h-.2v7.18ZM162.03,392.17c.04.1.03.22-.04.31-.06.09-.17.14-.28.14h-3.23c-.14,0-.26-.09-.32-.22l-3.68-9.85v9.73c0,.19-.15.33-.34.33h-3.19c-.19,0-.34-.15-.34-.33v-23.66c0-.18.15-.34.34-.34h4.2c1.82,0,3.2.45,4.11,1.34,1.14,1.13,1.71,2.87,1.71,5.16,0,1.75-.3,3.18-.89,4.25-.54.99-1.31,1.65-2.28,1.97l4.22,11.17ZM141.8,375.02c0-2.35-.79-3.49-2.42-3.49h-.2v7.18c.95-.05,1.61-.29,1.98-.73.42-.53.64-1.53.64-2.96M139.18,389.22c1.02-.04,1.74-.29,2.12-.72.44-.5.67-1.45.67-2.83s-.24-2.42-.7-2.95c-.4-.48-1.1-.75-2.09-.8v7.3ZM145.16,382.05c.51.84.77,2.06.77,3.73,0,4.55-1.99,6.85-5.91,6.85h-4.17c-.18,0-.34-.15-.34-.33v-23.66c0-.18.15-.34.34-.34h4.32c3.59,0,5.41,2.23,5.41,6.64,0,1.68-.23,2.9-.7,3.74-.37.66-.97,1.2-1.78,1.6.96.49,1.66,1.08,2.07,1.78M206.01,380.89c0-3.58-.31-6.07-.93-7.38-.59-1.25-1.65-1.86-3.24-1.86h-.06v17.51c1.64-.06,2.71-.58,3.26-1.58.64-1.12.97-3.37.97-6.69M209.45,374.15c.38,1.54.58,3.77.58,6.62,0,2.62-.22,4.79-.64,6.46-.42,1.64-1.14,2.9-2.13,3.77-1.23,1.1-3.33,1.63-6.43,1.63h-2.57c-.19,0-.34-.15-.34-.33v-23.66c0-.18.15-.34.34-.34h3.92c1.22,0,2.27.14,3.12.41.81.27,1.54.76,2.17,1.46.92,1.02,1.59,2.36,1.98,3.98M192.75,368.63v23.66c0,.19-.15.33-.34.33h-2.99c-.14,0-.27-.09-.32-.23l-3.57-10.65c-.32-.98-.64-2.01-.93-3.07-.02-.08-.04-.16-.07-.25l.12,2.13c0,.17.02.37.02.61,0,.24,0,.51,0,.81l.17,10.31c0,.09-.03.18-.1.24-.06.06-.15.1-.24.1h-3.14c-.18,0-.34-.15-.34-.33v-23.66c0-.18.15-.34.34-.34h2.97c.14,0,.27.09.32.23l3.17,9.44c.43,1.26.84,2.56,1.23,3.9,0-.07-.01-.13-.02-.2-.12-1.48-.19-2.9-.19-4.21v-8.83c0-.18.15-.34.34-.34h3.2c.19,0,.34.15.34.34"/><path class="cls-2" d="M258.94,460.86c-10.8.47-21.87-1.28-32.53-4.8-12.57-3.95-24.61-10.5-34.31-19.42-9.8-9.14-17.45-21.09-24.8-32.92,5.71,3.94,11.42,7.88,17.54,11.63,12.13,7.29,26,12.48,39.52,12.6,26.63-.1,51.84-21.55,77.24-19.52,14.21,1.11,28.65,9.7,42.89,18.39-8.95-2.46-17.81-4.7-26.77-5.59-8.87-.67-17.65-.06-25.74,2.58-10.32,3.14-19.45,9.4-29.67,12.75-4.96,1.47-10.11,2.52-15.36,3.34,5.02,2.42,9.74,4.72,14.77,5.56,6.85,1.06,13.82-.28,20.59-2.06,8.29-2.21,16.08-4.98,24.26-5.3,6.66.1,13.5,1.69,20.44,3.5-5.17,2.09-10.33,4.19-14.99,6.84-4.97,3.05-9.35,6.88-13.72,10.7-5.08,4.41-9.87,8.95-14.65,13.49,6.88-2.09,13.96-4.27,20.84-6.89,6.78-2.31,13.56-5.14,20.84-6.89,7.98-1.81,16.56-2.32,24.11-.26,10.97,3.11,20.06,11.79,29.26,20.68-1.21-.5-2.41-.99-3.72-1.18-7.54-2.58-15.08-5.16-22.74-5.86-11.69-.95-23.43,2.83-35.16,7.14-13.97,5.32-27.95,11.7-42.36,10.15-5.74-.79-11.57-2.84-17.1-5.29-5.32-2.55-10.13-5.59-15.05-8.32,5.15-1.04,10.3-2.08,15.27-4.08,4.96-2,9.63-5.18,14.2-8.04,3.35-2.31,6.6-4.32,9.95-6.63-7.58,1.62-15.16,3.25-23.03,3.7"/><path class="cls-2" d="M491.1,131.27c-9.47,17.64-22.56,33.98-38.9,43.9-18.86,11.13-42.35,13.15-64.5,16.98l4.28,21.52c0,.74-.14,1.45-.37,2.12,6.97-.57,13.92-1.19,20.72-2.71,7.09-1.79,14.11-4.26,21.09-7.06-4.35,6.58-8.42,12.78-13.93,17.45-7.55,6.25-17,9.66-26.51,12.39-3.44.97-6.85,1.86-10.23,2.76v27.53c.73.13,1.46.27,2.19.4,9.37,1.68,18.47,3.73,27.56,5.78-9.69,2.39-19.68,4.82-29.75,6.61v24.75c18.92-3.16,38.01-6.16,52.83-17.29,6.41-5.11,12.01-11.82,16.95-18.79,4.62-6.94,8.27-14.12,12.27-20.99-7.02,2.46-14.03,4.93-21.51,6.08-7.47,1.16-15.45.68-23.07.5-5.75-.39-11.14-.48-16.88-.86,10.38-3.51,20.77-7.02,30.66-12.17,13.46-7.24,25.65-17.38,36.06-29.37,12.41-13.89,22.3-30.56,27.63-48.42,5.29-18.2,5.94-38.25,6.31-57.94-4.09,8.92-8.18,17.84-12.9,26.82"/><path class="cls-2" d="M450.83,0s15.98,65.65-21.12,109.04c1.89-2.22.32-5.83,0-8.75-.33-7.45-2.27-14.9-4.86-22.03-3.24-7.13-7.12-13.93-11.01-20.41.65,8.75,1.3,17.49.32,26.24-.65,9.72-3.56,19.11-8.1,27.21-2.92,5.51-6.48,10.37-10.69,14.58-19.18,19.46-48.51,20.83-68.32,37.01-.33.27-.66.56-.99.84-1.19,1.09-4.73,4.58-8.03,10.2h30.93c6.84-3.44,14.11-6.29,21.46-8.85,13.93-4.86,26.22-7.47,36.59-16.86,4.86-3.89,14.89-13,14.99-19.48-.28,19.12-14.99,47.1-14.99,47.1,23.32-19.44,39.86-46.71,52.17-73.92,1.3,25.92-4.86,51.83-17.17,74.51,24.94-23.32,39.2-56.04,39.52-90.38.64-34.34-6.09-62.07-30.7-86.04"/><path class="cls-2" d="M96.99,148.22c10.37,9.39,22.66,12,36.59,16.86,7.36,2.57,14.62,5.41,21.46,8.85h31.06c-2.11-3.96-3.82-6.01-4.21-6.45-1.57-1.66-3.22-3.18-4.94-4.59-19.81-16.17-49.14-17.55-68.32-37.01-4.21-4.21-7.77-9.07-10.69-14.58-4.53-8.1-7.45-17.49-8.1-27.21-.97-8.74-.33-17.49.32-26.24-3.89,6.48-7.77,13.28-11.01,20.41-2.59,7.13-4.53,14.58-4.86,22.03-.32,2.92-1.89,6.53,0,8.75C37.19,65.65,53.17,0,53.17,0c-24.62,23.97-31.35,51.7-30.7,86.04.33,34.33,14.58,67.05,39.52,90.38-12.31-22.67-18.46-48.59-17.17-74.5,12.31,27.21,28.85,54.49,52.17,73.92,0,0-14.7-27.97-14.99-47.1.1,6.48,10.13,15.6,14.99,19.48"/><path class="cls-2" d="M290.42,96.21c-4.86-3.89-10.36-6.48-14.9-8.42,4.54-5.83,9.07-11.66,12.63-18.14,3.89-6.8,6.48-14.58,7.13-22.35.65-6.16,0-11.99-.32-18.14-1.62,5.18-3.24,10.37-5.18,15.55-3.24,8.1-7.77,15.87-13.93,21.7-3.89,3.56-8.42,6.8-12.96,9.72,2.27-3.56,4.53-6.8,6.48-10.36,1.62-2.92,3.24-6.16,4.21-9.72,1.94-5.51,2.59-11.01,3.56-16.84-1.94,3.89-3.89,8.1-6.48,11.34-5.51,7.77-14.9,12.96-23.97,16.84-9.39,4.21-18.46,7.45-26.56,13.61-7.45,5.83-13.93,14.25-15.22,23.32-.32,3.56-.32,6.8,0,10.36-6.15,7.45-11.99,15.22-14.58,24.3-1.29,4.21-1.62,8.75-.97,12.96.32,2.59.97,5.51,1.62,8.1,1.62-3.24,3.56-6.8,5.51-9.72,3.24-4.21,7.45-7.77,11.99-10.04,5.18-2.59,10.69-3.56,16.19-4.86,9.72-2.27,19.11-6.15,24.94-11.98.32-.65.97-1.3.97-1.3.32-.32.97-.65,1.62-1.3l.32-.32c1.3-.97,2.27-1.62,3.56-1.94h.32c3.24-.65,7.13.65,9.39,3.24.29.28.53.61.76.95h.02s.08.13.21.35c.02.04.04.07.06.11.48.85,1.48,2.81,1.84,5.09,0,0,0,.01,0,.02.7,3.47.89,9.33-2.62,16.92,0,0,0,0,0,0-2.97,7.37-8.5,18.47-15.04,28.68h51.93c2.44-7.96,4.22-16.05,4.64-27.19.97-18.79-3.89-39.52-17.17-50.53"/></g></svg>